<svg version="1.0" xmlns="http://www.w3.org/2000/svg" viewBox="0 0 100.000000 100.000000" preserveAspectRatio="xMidYMid meet">
<g transform="translate(0.000000,100.000000) scale(0.100000,-0.100000)" stroke="none">
<path d="M0 989 c0 -7 30 -53 67 -103 93 -126 268 -369 276 -382 3 -6 -72
-116 -168 -245 -96 -129 -175 -240 -175 -246 0 -10 107 -13 500 -13 l500 0 0
500 0 500 -500 0 c-365 0 -500 -3 -500 -11z m840 -494 l0 -155 -160 0 -160 0
0 148 c0 82 3 152 7 155 3 4 75 7 160 7 l153 0 0 -155z"/>
<path d="M685 550 l49 -50 -46 -47 c-41 -40 -49 -45 -63 -33 -14 12 -13 17 17
47 l32 33 -44 45 c-24 25 -48 45 -52 45 -4 0 -8 -45 -8 -100 l0 -100 110 0
110 0 0 105 0 105 -77 0 -77 0 49 -50z"/>
</g>
</svg>
