<svg xmlns="http://www.w3.org/2000/svg" viewBox="0 0 400.000000 400.000000">
<g transform="translate(0.000000,400.000000) scale(0.100000,-0.100000)" stroke="none">
<path d="M0 3959 c0 -24 4 -38 10 -34 5 3 10 1 10 -4 0 -6 14 -24 30 -39 17
-16 30 -36 30 -45 0 -9 16 -31 35 -50 19 -19 35 -41 35 -49 0 -9 7 -18 15 -22
8 -3 15 -15 15 -26 0 -11 7 -20 15 -20 8 0 15 -6 15 -14 0 -8 7 -16 15 -20 8
-3 15 -17 15 -31 0 -16 6 -25 15 -25 8 0 15 -9 15 -20 0 -11 7 -20 15 -20 8 0
15 -6 15 -13 0 -7 9 -20 20 -30 11 -9 20 -23 20 -31 0 -8 7 -16 15 -20 8 -3
14 -11 13 -18 -2 -7 3 -12 10 -10 6 1 12 -5 12 -13 0 -8 9 -23 20 -32 11 -10
20 -25 20 -35 0 -10 7 -18 15 -18 8 0 15 -7 15 -15 0 -8 4 -15 9 -15 10 0 34
-38 47 -72 3 -10 13 -18 20 -18 8 0 14 -7 14 -15 0 -9 7 -18 15 -21 8 -4 15
-11 15 -18 0 -7 16 -27 35 -46 19 -19 35 -40 35 -46 0 -7 7 -14 15 -18 8 -3
15 -14 15 -25 0 -10 7 -21 15 -25 8 -3 15 -12 15 -21 0 -8 7 -15 15 -15 8 0
15 -9 15 -20 0 -11 7 -20 15 -20 9 0 15 -9 15 -25 0 -14 6 -25 13 -25 15 0 47
-35 47 -53 0 -7 9 -20 20 -30 11 -9 20 -23 20 -31 0 -8 7 -16 15 -20 8 -3 15
-13 15 -21 0 -9 5 -13 10 -10 6 4 13 -7 16 -24 4 -17 13 -31 20 -31 8 0 14 -9
14 -20 0 -11 7 -20 15 -20 8 0 15 -6 15 -14 0 -7 7 -19 15 -26 8 -7 15 -21 15
-31 0 -11 7 -19 15 -19 8 0 15 -6 15 -13 0 -7 8 -20 18 -29 38 -38 52 -55 52
-67 0 -13 14 -32 43 -59 9 -9 17 -22 17 -28 0 -7 7 -14 15 -18 8 -3 15 -15 15
-26 0 -12 5 -18 10 -15 6 3 13 -2 17 -12 3 -10 14 -26 24 -36 11 -10 16 -24
12 -34 -4 -11 -3 -14 5 -9 7 4 15 0 19 -9 3 -10 21 -34 39 -54 19 -20 34 -42
34 -48 0 -7 5 -13 10 -13 6 0 10 -7 10 -15 0 -8 7 -15 15 -15 8 0 15 -7 15
-15 0 -8 -4 -15 -9 -15 -5 0 -12 -14 -16 -30 -4 -17 -13 -30 -21 -30 -8 0 -14
-7 -14 -15 0 -8 -4 -15 -10 -15 -5 0 -10 -6 -10 -14 0 -8 -16 -31 -35 -50 -19
-20 -35 -41 -35 -46 0 -6 -7 -13 -15 -16 -8 -4 -15 -13 -15 -20 0 -8 -13 -28
-30 -44 -16 -16 -30 -34 -30 -40 0 -6 -7 -13 -15 -16 -8 -4 -15 -14 -15 -23 0
-9 -8 -24 -18 -33 -38 -37 -52 -55 -52 -66 0 -7 -7 -12 -16 -12 -8 0 -13 -4
-10 -9 3 -5 -3 -20 -14 -34 -11 -14 -20 -30 -20 -36 0 -6 -7 -11 -15 -11 -8 0
-15 -7 -15 -15 0 -9 -6 -18 -14 -21 -8 -3 -17 -16 -20 -30 -4 -13 -11 -24 -16
-24 -6 0 -10 -7 -10 -15 0 -9 -7 -18 -15 -21 -8 -4 -15 -11 -15 -18 0 -6 -9
-19 -20 -29 -11 -9 -20 -24 -20 -32 0 -8 -7 -15 -15 -15 -8 0 -15 -7 -15 -16
0 -8 -13 -29 -30 -47 -16 -18 -30 -38 -30 -44 0 -7 -7 -13 -15 -13 -8 0 -15
-9 -15 -20 0 -11 -7 -20 -15 -20 -8 0 -15 -7 -15 -15 0 -9 -7 -18 -15 -21 -8
-4 -15 -15 -15 -25 0 -11 -7 -22 -15 -25 -8 -4 -15 -11 -15 -17 0 -5 -16 -25
-35 -44 -19 -19 -35 -40 -35 -48 0 -8 -7 -15 -15 -15 -8 0 -15 -9 -15 -20 0
-11 -7 -20 -15 -20 -8 0 -15 -7 -15 -15 0 -8 -7 -15 -15 -15 -8 0 -15 -9 -15
-20 0 -11 -7 -23 -15 -26 -8 -4 -15 -13 -15 -20 0 -8 -7 -17 -15 -20 -8 -4
-15 -13 -15 -20 0 -8 -7 -17 -15 -20 -8 -4 -15 -12 -15 -20 0 -8 -9 -22 -20
-31 -11 -10 -20 -23 -20 -30 0 -7 -7 -13 -15 -13 -8 0 -15 -7 -15 -15 0 -8 -4
-15 -9 -15 -5 0 -14 -13 -20 -30 -5 -16 -15 -30 -20 -30 -6 0 -11 -7 -11 -15
0 -9 -7 -18 -15 -21 -8 -4 -15 -12 -15 -20 0 -8 -6 -14 -14 -14 -9 0 -16 -12
-18 -27 -2 -16 -8 -27 -15 -26 -7 2 -13 -5 -13 -15 0 -10 -13 -29 -30 -42 -16
-14 -29 -34 -30 -44 0 -10 -16 -34 -35 -53 -19 -19 -35 -38 -35 -43 0 -6 -7
-10 -15 -10 -9 0 -15 -9 -15 -25 0 -14 -4 -25 -10 -25 -5 0 -10 -16 -10 -35
l0 -35 2000 0 2000 0 0 2000 0 2000 -2000 0 -2000 0 0 -41z m3350 -1979 l0
-610 -624 0 c-560 0 -624 2 -630 16 -8 20 -8 1168 0 1188 6 14 70 16 630 16
l624 0 0 -610z"/>
<path d="M2292 1983 l3 -418 430 0 430 0 0 415 0 415 -299 3 c-165 1 -303 -1
-308 -6 -5 -5 77 -92 182 -195 104 -103 190 -194 190 -202 0 -13 -357 -375
-370 -375 -3 0 -30 25 -60 55 l-53 54 126 127 c70 70 127 132 127 140 0 11
-385 404 -396 404 -2 0 -3 -188 -2 -417z"/>
</g>
</svg>
